{
	"asset":{
		"generator":"Khronos glTF Blender I/O v3.6.27",
		"version":"2.0"
	},
	"scene":0,
	"scenes":[
		{
			"name":"Scene",
			"nodes":[
				0,
				1,
				2
			]
		}
	],
	"nodes":[
		{
			"mesh":0,
			"name":"Main_object"
		},
		{
			"mesh":1,
			"name":"Side_button1",
			"translation":[
				1.4514559507369995,
				0.4466221332550049,
				0.30235084891319275
			]
		},
		{
			"mesh":2,
			"name":"Side_button2",
			"translation":[
				1.4599448442459106,
				0.4447556138038635,
				-0.44778716564178467
			]
		}
	],
	"materials":[
		{
			"doubleSided":true,
			"name":"Material",
			"pbrMetallicRoughness":{
				"baseColorFactor":[
					0.800000011920929,
					0.800000011920929,
					0.800000011920929,
					1
				],
				"metallicFactor":0,
				"roughnessFactor":0.5
			}
		}
	],
	"meshes":[
		{
			"name":"Cube",
			"primitives":[
				{
					"attributes":{
						"POSITION":0,
						"NORMAL":1,
						"TEXCOORD_0":2
					},
					"indices":3,
					"material":0
				}
			]
		},
		{
			"name":"Cube.001",
			"primitives":[
				{
					"attributes":{
						"POSITION":4,
						"NORMAL":5,
						"TEXCOORD_0":6
					},
					"indices":7
				}
			]
		},
		{
			"name":"Cube.002",
			"primitives":[
				{
					"attributes":{
						"POSITION":8,
						"NORMAL":9,
						"TEXCOORD_0":10
					},
					"indices":7
				}
			]
		}
	],
	"accessors":[
		{
			"bufferView":0,
			"componentType":5126,
			"count":796,
			"max":[
				1,
				0.4140293300151825,
				1.661767601966858
			],
			"min":[
				-1,
				-0.4305843114852905,
				-1.0911526679992676
			],
			"type":"VEC3"
		},
		{
			"bufferView":1,
			"componentType":5126,
			"count":796,
			"type":"VEC3"
		},
		{
			"bufferView":2,
			"componentType":5126,
			"count":796,
			"type":"VEC2"
		},
		{
			"bufferView":3,
			"componentType":5123,
			"count":2448,
			"type":"SCALAR"
		},
		{
			"bufferView":4,
			"componentType":5126,
			"count":864,
			"max":[
				-0.3947541117668152,
				-0.5708720684051514,
				0.09660132229328156
			],
			"min":[
				-0.4601138234138489,
				-0.6573007106781006,
				-0.17196525633335114
			],
			"type":"VEC3"
		},
		{
			"bufferView":5,
			"componentType":5126,
			"count":864,
			"type":"VEC3"
		},
		{
			"bufferView":6,
			"componentType":5126,
			"count":864,
			"type":"VEC2"
		},
		{
			"bufferView":7,
			"componentType":5123,
			"count":1716,
			"type":"SCALAR"
		},
		{
			"bufferView":8,
			"componentType":5126,
			"count":864,
			"max":[
				-0.3947541117668152,
				-0.5708720684051514,
				0.09660132229328156
			],
			"min":[
				-0.4601138234138489,
				-0.6573007106781006,
				-0.17196525633335114
			],
			"type":"VEC3"
		},
		{
			"bufferView":9,
			"componentType":5126,
			"count":864,
			"type":"VEC3"
		},
		{
			"bufferView":10,
			"componentType":5126,
			"count":864,
			"type":"VEC2"
		}
	],
	"bufferViews":[
		{
			"buffer":0,
			"byteLength":9552,
			"byteOffset":0,
			"target":34962
		},
		{
			"buffer":0,
			"byteLength":9552,
			"byteOffset":9552,
			"target":34962
		},
		{
			"buffer":0,
			"byteLength":6368,
			"byteOffset":19104,
			"target":34962
		},
		{
			"buffer":0,
			"byteLength":4896,
			"byteOffset":25472,
			"target":34963
		},
		{
			"buffer":0,
			"byteLength":10368,
			"byteOffset":30368,
			"target":34962
		},
		{
			"buffer":0,
			"byteLength":10368,
			"byteOffset":40736,
			"target":34962
		},
		{
			"buffer":0,
			"byteLength":6912,
			"byteOffset":51104,
			"target":34962
		},
		{
			"buffer":0,
			"byteLength":3432,
			"byteOffset":58016,
			"target":34963
		},
		{
			"buffer":0,
			"byteLength":10368,
			"byteOffset":61448,
			"target":34962
		},
		{
			"buffer":0,
			"byteLength":10368,
			"byteOffset":71816,
			"target":34962
		},
		{
			"buffer":0,
			"byteLength":6912,
			"byteOffset":82184,
			"target":34962
		}
	],
	"buffers":[
		{
			"byteLength":89096,
			"uri":"Pomodoro.bin"
		}
	]
}
